#!OML:ASF H:\Dans Jumps\Project 1\Capture day 1\Session 1\subject.ASF
:FULLY-SPECIFIED
:DEGREES
225
root 0.614132 20.8961 -7.47908 15.6379 -3.31262 -1.81332
lowerback -5.46386 0.186958 -0.00111982
upperback -2.87247 0.241912 0.865805
thorax 0.107038 0.126219 0.901955
lowerneck -7.32128 -0.119982 -1.9867
upperneck 25.2032 -0.0812244 0.946982
head 9.08673 -0.132728 0.6543
rclavicle -1.71685e-015 1.76421e-014
rhumerus -38.8789 12.8737 -68.5556
rradius 66.5351
rwrist 18.0979
rhand -20.2179 -22.6415
rfingers 7.12502
rthumb 6.12943 -52.5328
lclavicle -1.71685e-015 1.76421e-014
lhumerus -41.4358 -29.7529 68.0886
lradius 54.449
lwrist 36.2094
lhand -31.0677 -12.7716
lfingers 7.12502
lthumb -4.34852 17.1638
rfemur -10.6661 -7.64658 18.4143
rtibia 24.6987
rfoot 23.7592 -12.6441
rtoes 23.4412
lfemur -9.44919 11.6316 -16.8279
ltibia 22.1988
lfoot 30.0616 3.41047
ltoes -2.64627
226
root 0.610986 21.1692 -7.30047 15.5407 -3.2064 -1.8974
lowerback -5.82868 0.113609 0.0180764
upperback -2.86666 0.140658 0.925564
thorax 0.317154 0.0752301 0.948159
lowerneck -7.13566 -0.059265 -1.92968
upperneck 25.5459 -0.00151802 0.906065
head 9.17053 -0.0968877 0.639596
rclavicle -3.03069e-015 3.19919e-015
rhumerus -39.0908 12.204 -68.2973
rradius 65.9768
rwrist 18.3473
rhand -20.2674 -22.9678
rfingers 7.12502
rthumb 6.08169 -52.8605
lclavicle -3.03069e-015 3.19919e-015
lhumerus -41.2148 -28.8796 67.335
lradius 54.2598
lwrist 36.5474
lhand -31.0219 -12.6086
lfingers 7.12502
lthumb -4.30432 17.3276
rfemur -11.1943 -8.22743 18.8605
rtibia 25.8411
rfoot 24.5171 -11.7202
rtoes 24.051
lfemur -10.0608 12.4425 -16.8826
ltibia 23.445
lfoot 30.8911 1.98519
ltoes -0.302135
227
root 0.608666 21.4318 -7.13989 15.1954 -3.07129 -1.99791
lowerback -5.70722 0.046689 0.0404222
upperback -2.76388 0.0496023 1.00394
thorax 0.356721 0.0296484 1.0105
lowerneck -7.07571 -0.00959997 -1.92879
upperneck 25.9301 0.0610845 0.922466
head 9.29348 -0.0683035 0.652896
rclavicle -9.38015e-016 -1.10822e-014
rhumerus -39.1856 11.2994 -68.035
rradius 65.2147
rwrist 18.531
rhand -20.3779 -23.2363
rfingers 7.12502
rthumb 5.97495 -53.132
lclavicle -9.38015e-016 -1.10822e-014
lhumerus -40.7913 -27.8166 66.6426
lradius 53.8415
lwrist 36.71
lhand -30.9891 -12.5684
lfingers 7.12502
lthumb -4.27257 17.3685
rfemur -11.5875 -8.79818 19.3111
rtibia 27.1111
rfoot 25.2927 -10.6809
rtoes 24.9177
lfemur -10.5608 13.0813 -16.8759
ltibia 24.8355
lfoot 31.3223 0.558247
ltoes 0.951124
228
root 0.607866 21.6841 -6.99395 14.5959 -2.91333 -2.10517
lowerback -5.12789 -0.00637762 0.0813731
upperback -2.56865 -0.0213964 1.084
thorax 0.236332 -0.00586952 1.06505
lowerneck -7.08837 0.0211437 -1.98277
upperneck 26.3072 0.0936603 0.996993
head 9.42881 -0.0526597 0.693009
rclavicle 8.11756e-015 -6.24929e-015
rhumerus -39.2387 10.2271 -67.7805
rradius 64.3266
rwrist 18.6441
rhand -20.545 -23.434
rfingers 7.12502
rthumb 5.81366 -53.3342
lclavicle 8.11756e-015 -6.24929e-015
lhumerus -40.205 -26.6701 66.0317
lradius 53.2237
lwrist 36.7474
lhand -30.9717 -12.7258
lfingers 7.12502
lthumb -4.2558 17.2115
rfemur -11.8095 -9.28776 19.7303
rtibia 28.4719
rfoot 25.8365 -9.69478
rtoes 25.6272
lfemur -10.9001 13.5208 -16.8086
ltibia 26.301
lfoot 31.4963 -0.677004
ltoes 1.63018
229
root 0.608472 21.9263 -6.85864 13.7926 -2.75348 -2.21774
lowerback -4.19086 -0.0378782 0.152401
upperback -2.29615 -0.0618303 1.1517
thorax -0.00529156 -0.0263343 1.09232
lowerneck -7.12711 0.0303531 -2.05936
upperneck 26.6367 0.092161 1.10454
head 9.5534 -0.0511586 0.745181
rclavicle 2.80783e-015 -7.28049e-015
rhumerus -39.3082 9.05798 -67.5539
rradius 63.3675
rwrist 18.7278
rhand -20.7245 -23.5836
rfingers 7.12502
rthumb 5.6403 -53.4885
lclavicle 2.80783e-015 -7.28049e-015
lhumerus -39.5209 -25.5198 65.5095
lradius 52.4704
lwrist 36.6994
lhand -30.9652 -13.0213
lfingers 7.12502
lthumb -4.24951 16.9161
rfemur -11.8971 -9.61809 20.1073
rtibia 29.8975
rfoot 26.0671 -8.89427
rtoes 25.7581
lfemur -11.1042 13.7715 -16.6909
ltibia 27.7911
lfoot 31.4682 -1.66127
ltoes 1.71305
230
root 0.610215 22.1577 -6.72959 12.8641 -2.60798 -2.33252
lowerback -3.02931 -0.0470953 0.253801
upperback -1.97249 -0.0700074 1.20035
thorax -0.321855 -0.0310423 1.08515
lowerneck -7.14448 0.0182541 -2.12667
upperneck 26.8905 0.0574116 1.21701
head 9.64805 -0.0631372 0.793921
rclavicle 2.09345e-015 1.3418e-015
rhumerus -39.4262 7.86706 -67.3771
rradius 62.3557
rwrist 18.8347
rhand -20.8965 -23.6861
rfingers 7.12502
rthumb 5.47423 -53.5954
lclavicle 2.09345e-015 1.3418e-015
lhumerus -38.8022 -24.4232 65.0894
lradius 51.6326
lwrist 36.5886
lhand -31.0061 -13.3156
lfingers 7.12502
lthumb -4.28905 16.621
rfemur -11.9184 -9.78142 20.4427
rtibia 31.3649
rfoot 26.0453 -8.38251
rtoes 25.6126
lfemur -11.2279 13.8854 -16.544
ltibia 29.2573
lfoot 31.3666 -2.41674
ltoes 1.53776
231
root 0.612557 22.3778 -6.60246 11.9061 -2.49642 -2.43479
lowerback -1.79744 -0.033256 0.366215
upperback -1.62369 -0.0444952 1.22296
thorax -0.654122 -0.019247 1.04615
lowerneck -7.12217 -0.0105583 -2.1633
upperneck 27.0733 -0.00305371 1.31425
head 9.71048 -0.0851647 0.829097
rclavicle 1.64619e-016 -6.68413e-015
rhumerus -39.6046 6.71922 -67.2693
rradius 61.3006
rwrist 18.9902
rhand -21.0498 -23.7291
rfingers 7.12502
rthumb 5.32627 -53.6422
lclavicle 1.64619e-016 -6.68413e-015
lhumerus -38.099 -23.4138 64.7721
lradius 50.7575
lwrist 36.4215
lhand -31.0332 -13.5242
lfingers 7.12502
lthumb -4.31524 16.4119
rfemur -11.9673 -9.80476 20.7338
rtibia 32.8491
rfoot 25.8442 -8.1237
rtoes 25.4817
lfemur -11.3464 13.9195 -16.4054
ltibia 30.6538
lfoot 31.2756 -2.97171
ltoes 1.50836
232
root 0.614904 22.5866 -6.47319 11.0058 -2.42395 -2.505
lowerback -0.624539 -0.00344354 0.459763
upperback -1.28378 0.0043905 1.22075
thorax -0.9639 0.00417466 0.991891
lowerneck -7.06795 -0.0524576 -2.18033
upperneck 27.2379 -0.083628 1.40135
head 9.76091 -0.115511 0.855208
rclavicle 3.16192e-015 -9.6659e-015
rhumerus -39.8553 5.69965 -67.2477
rradius 60.2096
rwrist 19.1716
rhand -21.1169 -23.8889
rfingers 7.12502
rthumb 5.26152 -53.8036
lclavicle 3.16192e-015 -9.6659e-015
lhumerus -37.4747 -22.5073 64.577
lradius 49.8677
lwrist 36.1888
lhand -31.0678 -13.5922
lfingers 7.12502
lthumb -4.34862 16.3431
rfemur -12.1239 -9.72751 20.9743
rtibia 34.3188
rfoot 25.501 -8.01212
rtoes 25.4011
lfemur -11.5307 13.9157 -16.3146
ltibia 31.9338
lfoot 31.2053 -3.40258
ltoes 1.63332
233
root 0.616532 22.7847 -6.33968 10.2435 -2.39737 -2.5295
lowerback 0.389937 0.0420279 0.507085
upperback -0.978648 0.0738644 1.19315
thorax -1.22118 0.0381334 0.936257
lowerneck -6.99923 -0.0996363 -2.16885
upperneck 27.4137 -0.173403 1.47388
head 9.81303 -0.148801 0.870481
rclavicle -1.56232e-015 -1.54058e-015
rhumerus -40.155 4.84614 -67.3256
rradius 59.0677
rwrist 19.3581
rhand -21.1383 -24.0268
rfingers 7.12502
rthumb 5.24086 -53.942
lclavicle -1.56232e-015 -1.54058e-015
lhumerus -36.948 -21.7251 64.4991
lradius 48.9748
lwrist 35.9143
lhand -31.0538 -13.5592
lfingers 7.12502
lthumb -4.33506 16.3765
rfemur -12.4689 -9.55781 21.1671
rtibia 35.7403
rfoot 25.0541 -7.9413
rtoes 25.24
lfemur -11.8565 13.9026 -16.3053
ltibia 33.06
lfoot 31.1274 -3.75351
ltoes 1.79486
234
root 0.617327 22.9731 -6.20063 9.66683 -2.39451 -2.49981
lowerback 1.18798 0.0921348 0.494076
upperback -0.727895 0.146767 1.14697
thorax -1.41288 0.07428 0.894132
lowerneck -6.9064 -0.145054 -2.14487
upperneck 27.6014 -0.260562 1.5345
head 9.86501 -0.180919 0.879794
rclavicle 2.0919e-015 -1.44119e-014
rhumerus -40.4833 4.19405 -67.5048
rradius 57.8662
rwrist 19.519
rhand -21.1537 -24.117
rfingers 7.12502
rthumb 5.22594 -54.0326
lclavicle 2.0919e-015 -1.44119e-014
lhumerus -36.5309 -21.0632 64.5436
lradius 48.071
lwrist 35.6025
lhand -31.0015 -13.4883
lfingers 7.12502
lthumb -4.28459 16.4484
rfemur -13.0447 -9.33705 21.3153
rtibia 37.0809
rfoot 24.5318 -7.83211
rtoes 24.9335
lfemur -12.3685 13.8989 -16.3948
ltibia 34.0078
lfoot 31.0039 -4.00073
ltoes 1.93131
235
root 0.616874 23.152 -6.05722 9.31089 -2.41715 -2.43275
lowerback 1.74662 0.141904 0.425411
upperback -0.53793 0.215189 1.09139
thorax -1.53253 0.108692 0.872931
lowerneck -6.81509 -0.181695 -2.11572
upperneck 27.8 -0.334573 1.5876
head 9.92117 -0.207226 0.887049
rclavicle -3.1294e-015 -1.10962e-015
rhumerus -40.8081 3.75873 -67.7947
rradius 56.6161
rwrist 19.6396
rhand -21.1623 -24.1792
rfingers 7.12502
rthumb 5.21763 -54.0949
lclavicle -3.1294e-015 -1.10962e-015
lhumerus -36.2145 -20.5136 64.6971
lradius 47.1586
lwrist 35.2835
lhand -30.9297 -13.4091
lfingers 7.12502
lthumb -4.21522 16.529
rfemur -13.8885 -9.07183 21.447
rtibia 38.3152
rfoot 23.9593 -7.67757
rtoes 24.4959
lfemur -13.111 13.946 -16.5763
ltibia 34.7782
lfoot 30.7981 -4.1075
ltoes 1.93329
236
root 0.615329 23.3211 -5.9105 9.16559 -2.44396 -2.33008
lowerback 2.09709 0.181453 0.302338
upperback -0.416248 0.26616 1.03103
thorax -1.60533 0.134917 0.877643
lowerneck -6.71782 -0.205355 -2.08875
upperneck 28.001 -0.389551 1.63775
head 9.9769 -0.225298 0.895658
rclavicle 1.85274e-015 -1.33558e-015
rhumerus -41.1315 3.53889 -68.1929
rradius 55.3314
rwrist 19.7129
rhand -21.1858 -24.2226
rfingers 7.12502
rthumb 5.19495 -54.1389
lclavicle 1.85274e-015 -1.33558e-015
lhumerus -35.993 -20.0724 64.9547
lradius 46.2327
lwrist 34.9802
lhand -30.8438 -13.3531
lfingers 7.12502
lthumb -4.13228 16.5866
rfemur -14.9821 -8.8019 21.5641
rtibia 39.4277
rfoot 23.342 -7.52763
rtoes 23.9738
lfemur -14.0794 14.0683 -16.8473
ltibia 35.3902
lfoot 30.476 -4.02952
ltoes 1.70617
237
root 0.612751 23.4797 -5.76228 9.20355 -2.45816 -2.21577
lowerback 2.2819 0.202512 0.152897
upperback -0.350412 0.29005 0.971777
thorax -1.64227 0.147907 0.899373
lowerneck -6.63743 -0.210019 -2.05918
upperneck 28.2005 -0.41762 1.68607
head 10.0349 -0.230843 0.906
rclavicle 7.72465e-015 -3.60297e-015
rhumerus -41.4415 3.4996 -68.6943
rradius 54.0348
rwrist 19.7642
rhand -21.2108 -24.2557
rfingers 7.12502
rthumb 5.17078 -54.1726
lclavicle 7.72465e-015 -3.60297e-015
lhumerus -35.8508 -19.7256 65.2938
lradius 45.3082
lwrist 34.7072
lhand -30.7384 -13.2951
lfingers 7.12502
lthumb -4.03053 16.6465
rfemur -16.2914 -8.55007 21.6917
rtibia 40.4099
rfoot 22.7105 -7.43233
rtoes 23.4226
lfemur -15.2589 14.2799 -17.179
ltibia 35.8815
lfoot 30.028 -3.75003
ltoes 1.18099
